inDegrees=no
num_controls=7
num_derivatives=13
num_iterations=188
num_multipliers=7
num_parameters=0
num_slacks=7
num_states=26
objective=5.319092
objective_accelerations=0.722136
objective_balance=0.018630
objective_effort=0.175501
objective_height=4.306964
objective_ligament=0.095861
solver_duration=2079.550465
status=Solve_Succeeded
success=true
DataType=double
version=3
OpenSimVersion=4.4-2022-07-23-0e9fedc
endheader
time	/jointset/ground_pelvis/pelvis_tilt/value	/jointset/ground_pelvis/pelvis_tx/value	/jointset/ground_pelvis/pelvis_ty/value	/jointset/hip_l/hip_flexion_l/value	/jointset/hip_l/hip_adduction_l/value	/jointset/hip_l/hip_rotation_l/value	/jointset/back/lumbar_extension/value	/jointset/patellofemoral_l/patellar_flexion_l/value	/jointset/knee_l/knee_flexion_l/value	/jointset/knee_l/knee_adduction_l/value	/jointset/knee_l/knee_rotation_l/value	/jointset/ankle_l/ankle_angle_l/value	/jointset/subtalar_l/subtalar_angle_l/value	/jointset/ground_pelvis/pelvis_tilt/speed	/jointset/ground_pelvis/pelvis_tx/speed	/jointset/ground_pelvis/pelvis_ty/speed	/jointset/hip_l/hip_flexion_l/speed	/jointset/hip_l/hip_adduction_l/speed	/jointset/hip_l/hip_rotation_l/speed	/jointset/back/lumbar_extension/speed	/jointset/patellofemoral_l/patellar_flexion_l/speed	/jointset/knee_l/knee_flexion_l/speed	/jointset/knee_l/knee_adduction_l/speed	/jointset/knee_l/knee_rotation_l/speed	/jointset/ankle_l/ankle_angle_l/speed	/jointset/subtalar_l/subtalar_angle_l/speed	/forceset/tau_hip_flexion_l	/forceset/tau_hip_adduction_l	/forceset/tau_hip_rotation_l	/forceset/tau_knee_flexion_l	/forceset/tau_ankle_angle_l	/forceset/tau_subtalar_angle_l	/forceset/tau_lumbar_extension	lambda_cid13_p0	lambda_cid13_p1	lambda_cid13_p2	lambda_cid13_p3	lambda_cid13_p4	lambda_cid13_p5	lambda_cid14_p0	/jointset/ground_pelvis/pelvis_tilt/accel	/jointset/ground_pelvis/pelvis_tx/accel	/jointset/ground_pelvis/pelvis_ty/accel	/jointset/hip_l/hip_flexion_l/accel	/jointset/hip_l/hip_adduction_l/accel	/jointset/hip_l/hip_rotation_l/accel	/jointset/back/lumbar_extension/accel	/jointset/patellofemoral_l/patellar_flexion_l/accel	/jointset/knee_l/knee_flexion_l/accel	/jointset/knee_l/knee_adduction_l/accel	/jointset/knee_l/knee_rotation_l/accel	/jointset/ankle_l/ankle_angle_l/accel	/jointset/subtalar_l/subtalar_angle_l/accel	gamma_cid13_p0	gamma_cid13_p1	gamma_cid13_p2	gamma_cid13_p3	gamma_cid13_p4	gamma_cid13_p5	gamma_cid14_p0
0.5	-0.205522050622188	0.03248079096314195	0.7734035953385668	0.9766898305475804	-0.3607733106539143	-0.009745796688594889	-0.400336663157916	0.9590711204885335	0.9590711204886512	-0.02343452137659507	-0.1745320891581455	0.3170923698709707	0.1687388544442524	-0.7258774513355172	-0.1656072984842632	-0.5209251288068553	2.35454651089288	0.02828018705104282	0.5334119570666751	-0.3082287473365623	1.996813326713385	1.996813326713395	0.3002944284169444	-2.208661733242075e-05	0.5313058602436301	0.2648856264187524	-0.09701788625464497	0.01821498982272698	-0.002407108835912317	-0.2066056063442032	0.004516781359690404	0.02478928929170886	0.1123509177905211	-21.94175765214838	-6.410685512999789	0.1545335483998517	-1.777907545348638	-439.9044016105864	-75.79612464015413	-4.840554445937286	0.2560001228394493	0.4172708905246785	-0.4629087576560184	-1.150755219224743	0.1128504813490978	-0.7409246569080895	1.397778632882355	-1.595729516657938	-1.595729516657926	-0.1965484335341909	-0.005539016881846411	-0.8473362599685456	0.1016833751778939	-4.884064509435328e-07	-1.221061891820971e-07	6.383041426338901e-06	3.534230544095901e-07	-1.223756931547873e-06	-1.025557950680748e-06	-7.886780691591223e-07
0.51	-0.212766014380408	0.03084587484892274	0.7681725233746846	1.000172851538707	-0.3604873764884637	-0.004442725215977198	-0.40334988136571	0.978955860758157	0.9789558607581239	-0.02045100384299306	-0.1745322667439789	0.3223614592047848	0.1713884470330894	-0.7228127320153913	-0.1613544461910655	-0.5251670323368118	2.341731897258734	0.02890831677605257	0.5271560479851707	-0.2943880914990649	1.979849502993397	1.979849502993402	0.2964063808011793	-2.286618790192672e-05	0.5224389928343105	0.2649916119665412	-0.1016021492325063	0.01906775168912859	-0.002799516331319137	-0.2091422252932593	0.002922973954285419	0.0252307766599185	0.1158774114493284	-22.6051315573843	-6.396754060958346	0.05006038220487789	-1.637572776412588	-443.2146824229168	-76.01615367196713	-4.2185917110762	0.3470598164092932	0.4325897422432251	-0.3867357013967077	-1.39574136390696	0.03706791634856758	-0.5756142383368624	1.381229467667685	-1.789337407405359	-1.789337407405936	-0.4852694812544439	0.002446471744727419	-0.9173302075870333	-0.04190696751423338	-4.683151838476686e-07	2.311544603445294e-07	6.330119222501816e-06	3.946270672213857e-07	-1.165814238104341e-06	-6.440956764378767e-07	-7.625861360135654e-07
0.52	-0.2199762605494642	0.02925414672634068	0.7629026514653565	1.023517941007814	-0.360195306286108	0.0007962491249110577	-0.4062238889334319	0.9986624370690336	0.9986624370688495	-0.01750643409667493	-0.1745324933457285	0.3275396862192709	0.1740377068549855	-0.7191339335028601	-0.156969700156831	-0.5286851178960125	2.326960206488693	0.02950739443192973	0.520592530721056	-0.2803866193221973	1.961180534963967	1.961180534963969	0.2925048709591439	-3.188980290188432e-05	0.5131333963780568	0.2648190730305863	-0.1061864122103646	0.01992051355552463	-0.003191923826696719	-0.2116788442423156	0.00132916654887854	0.02567226402811908	0.119403905108139	-23.26290812890888	-6.391677393171721	-0.04400294871366811	-1.542084485236684	-446.4445532738315	-76.34492610591658	-3.645728055887128	0.3788159613204948	0.4436496387320204	-0.3181451635047999	-1.542170646403618	0.107040067522578	-0.8024462934301123	1.429941900756383	-1.936758378546083	-1.936758378546078	-0.1992408787882444	-0.007187825767945022	-0.9350820693553586	0.04597847842913687	-4.466686866916228e-07	5.412264485951333e-07	6.247638697633992e-06	4.280360408997108e-07	-1.103860444171509e-06	-2.78340967604462e-07	-7.372530039297035e-07
0.53	-0.2271468691137467	0.02770686973297558	0.7576012307311645	1.046705944618652	-0.3598972097614782	0.005968679822591273	-0.408957064505712	1.018174117921367	1.018174117921269	-0.01460115662884284	-0.1745325089253496	0.3326228405607643	0.1766840703650259	-0.7148919737902828	-0.1524687362561072	-0.5314732736705001	2.310325095259067	0.03010603341607149	0.5138569132556949	-0.2662364751850735	1.940883212632467	1.94088321263248	0.2885279036650691	1.239434815845379e-05	0.5034316639716487	0.2644008916486995	-0.1106880070793194	0.02035671095144349	-0.003438230556315503	-0.2145223402606985	-0.0001462106700663253	0.02608992630140559	0.1228382495644068	-23.8970021735678	-6.376842075938413	-0.1436895196321513	-1.415098202695334	-449.8270207950236	-76.76348366613908	-3.120885114371502	0.461229375157711	0.455953221568115	-0.2405017574439411	-1.771545802084224	0.03440812378166306	-0.6152976330920699	1.40935366251093	-2.116937801619347	-2.116937801617579	-0.5002193021531346	0.00898689249491655	-0.9975802186941423	-0.09447777405160376	-4.000011274770459e-07	6.032722165716499e-07	5.703378343753369e-06	4.036183413732403e-07	-9.858973702101236e-07	-5.578780738511255e-08	-6.720093625470125e-07
0.54	-0.2342721894011172	0.02620512906978282	0.7522756582446228	1.069718124229027	-0.3595935003850228	0.0110725187136204	-0.4115483780381565	1.037474681822149	1.037474681822143	-0.01173630776343782	-0.1745323315920706	0.3376070052997117	0.1793244997957367	-0.7100762781204517	-0.1478624341223627	-0.5335154683659094	2.291795406395758	0.03062996479707661	0.5068741693902161	-0.2520142113551269	1.918957144654273	1.918957144654298	0.2844191504735551	6.692777295786475e-06	0.4933354758688162	0.2636322571646538	-0.1151896019482657	0.02079290834738502	-0.003684537285925784	-0.2173658362790771	-0.00162158788900482	0.02650758857472675	0.1262725940206796	-24.52669682948301	-6.370153593406937	-0.2336481977324242	-1.330544672176998	-453.1482614922652	-77.2862774613059	-2.642781887772589	0.4935631527712317	0.464717285336123	-0.1689529476891034	-1.921086173140052	0.09209854689525941	-0.8518715734536373	1.444365839320981	-2.262507507884755	-2.262507507884763	-0.2255980582760611	-0.01718497015250576	-1.013973208640271	-0.02411214200259184	-3.256506910913279e-07	3.909059961598112e-07	4.648212647135174e-06	3.152221948967822e-07	-8.059665821745952e-07	8.329596920801165e-09	-5.626094130039144e-07
0.55	-0.2413465261312188	0.02474983137303617	0.7469333849265155	1.09253595227278	-0.3592843106369086	0.01610379814814137	-0.4139971171556304	1.056548238231043	1.056548238231183	-0.008910929421834728	-0.1745326475662811	0.3424884537071888	0.1819563964937991	-0.7046866359621649	-0.1431934225770925	-0.5348130960902245	2.271466979160383	0.03119569241406115	0.4994464767520175	-0.2377355852646642	1.895503148187827	1.895503148187847	0.2805440479335253	-3.728114269900949e-05	0.4828852763185592	0.2626784809285962	-0.1199474990722859	0.022294003728978	-0.003816469584439216	-0.2198034892657367	-0.003561046187666281	0.02606460629262465	0.1298149548330172	-25.40483619491569	-5.869603731798092	-0.4898199845814478	-0.9147402311968212	-456.5277932230852	-76.75421212271063	-2.209950402185495	0.5773100936147539	0.4685988878117135	-0.0913943745024757	-2.134239461368233	0.03633724822828943	-0.678963054409884	1.419315025167062	-2.424393469212427	-2.424393469213166	-0.4853142600226937	0.007679487135546477	-1.070887326407518	-0.1418295886626114	-2.309677034992873e-07	-2.798191984846928e-07	3.120757137170056e-06	1.336403649077266e-07	-5.775733758367345e-07	-2.785557022976421e-07	-4.253235214920247e-07
0.5600000000000001	-0.2483638373704864	0.02334134495148009	0.7415818899932252	1.115141392351653	-0.3589699581367983	0.02106265166719642	-0.416303129205948	1.075379745124636	1.07537974512492	-0.006127671687259226	-0.174532266661691	0.3472633313195255	0.18457659158465	-0.6986711799535829	-0.1385001790842494	-0.5353597914025282	2.249317813419728	0.03166251519617855	0.4923889862975412	-0.223468797923875	1.870547241593864	1.87054724159388	0.2759950290672452	0.0001460685396467916	0.4720213168407379	0.2612919357223284	-0.124705396196307	0.02379509911055627	-0.003948401882922509	-0.2222411422523982	-0.005500504486332184	0.02562162401049989	0.1333573156453551	-26.28324431234435	-5.371687359157352	-0.742508641360514	-0.5212287645856566	-459.8718847960748	-76.29041338637164	-1.820855897066446	0.6187259228302824	0.4695636748506781	-0.01876646528679162	-2.285233874196119	0.07231757992184801	-0.7778311367091346	1.441998089386295	-2.562889533388161	-2.562889533388098	-0.360381323526128	0.02827975031564531	-1.096725194153126	-0.1106659360445955	-1.118856544596606e-07	-1.500575162208377e-06	1.026553851188647e-06	-1.597642852964424e-07	-2.910252675360766e-07	-9.866442457452999e-07	-2.545744996175857e-07
0.5700000000000001	-0.2553184286078926	0.02197997984579708	0.7362286834971473	1.137516772423381	-0.3586506635452258	0.0259456058667561	-0.4184664364540965	1.093954292447864	1.09395429244819	-0.003386051728827806	-0.1745318265185522	0.3519280068713231	0.1871821482684967	-0.6921712701082224	-0.1337590089615358	-0.5351518742924299	2.225460660880796	0.03218216161916326	0.4842253327777715	-0.209215841947208	1.844114700608043	1.844114700608052	0.2722527836423184	-3.203264750512429e-05	0.4608725222351333	0.2597589444549442	-0.1287821597967567	0.02302111975408325	-0.004037697713362867	-0.2258377478100671	-0.006415094986669033	0.02638541085196931	0.1364249040288432	-26.70517722579151	-5.58493900507651	-0.7594351184242181	-0.5919665307049922	-463.279496562061	-77.52249570468139	-1.473714666211934	0.6769750970987952	0.4784034984783926	0.05999003976031601	-2.480603413786362	0.03980981332501066	-0.8322910813812892	1.413465815612139	-2.720533149875072	-2.720533149875977	-0.392869106021856	-0.03706700977137428	-1.130248873442682	-0.1833190596348664	-4.109831627567708e-08	-2.095057963536553e-06	-1.783814563199592e-07	-3.139636250170894e-07	-1.189440510520015e-07	-1.32897989819023e-06	-1.477704418777869e-07
0.58	-0.2622057504305036	0.02066642840484055	0.7308814400202909	1.159644651475712	-0.3583265681614559	0.0307475918067665	-0.4204879098497173	1.112257095007493	1.112257095007862	-0.0006841988154618282	-0.1745324097785926	0.3564799360211291	0.1897706343721597	-0.6852172969944679	-0.1289374461389543	-0.5341671875582423	2.199817609540077	0.03262267363567369	0.4761953343871869	-0.195102027418332	1.816198288874386	1.816198288874389	0.2680416200555581	-5.861209628778864e-05	0.449472036442387	0.2578778196855795	-0.132858923397198	0.02224714039762698	-0.004126993543894874	-0.2294343533677352	-0.007329685487001444	0.0271491976934665	0.1394924924123378	-27.12536075961841	-5.80792879956662	-0.7640367383682714	-0.6795334763012808	-466.6936932352334	-78.79626119625533	-1.166981251122919	0.7095385765091065	0.4856422148242418	0.1365874595311088	-2.642413634553899	0.05649069862698603	-0.751100110872121	1.414169799828071	-2.859663682955305	-2.859663682955315	-0.4541649558928447	0.05858409798950164	-1.147063431581461	-0.1802926364406944	-3.320641548508738e-08	-1.873929204535724e-06	-2.252003267477433e-07	-2.868723278289699e-07	-9.593599600347152e-08	-1.194986204213019e-06	-1.242435467319351e-07
